<svg width="164.5107177734375px" height="172.4px" xmlns="http://www.w3.org/2000/svg" viewBox="167.74464111328126 -11.200000000000003 164.5107177734375 172.4" style="background:#444" preserveAspectRatio="xMidYMid"><defs><filter id="editing-crystal" x="-100%" y="-100%" width="300%" height="300%"><feMorphology operator="dilate" radius="2" in="SourceGraphic" result="border"></feMorphology><feFlood flood-color="#fff" result="black"></feFlood><feMorphology operator="dilate" radius="2" in="SourceGraphic" result="erode"></feMorphology><feGaussianBlur in="erode" stdDeviation="4" result="blur"></feGaussianBlur><feOffset in="blur" dx="2" dy="2" result="offset"></feOffset><feComposite operator="atop" in="offset" in2="black" result="merge"></feComposite><feComposite operator="in" in="merge" in2="SourceGraphic" result="inner-shadow"></feComposite><feGaussianBlur in="SourceGraphic" stdDeviation="2.5" result="shadow1"></feGaussianBlur><feOffset in="shadow1" dx="0" dy="5" result="shadow"></feOffset><feSpecularLighting in="SourceGraphic" result="specular" surfaceScale="1.5" specularConstant="100" specularExponent="10" lighting-color="#fff"><fePointLight x="250" y="-300" z="-400"></fePointLight></feSpecularLighting><feGaussianBlur in="specular" stdDeviation="1" result="specular2"></feGaussianBlur><feComposite operator="in" in="specular2" in2="SourceAlpha" result="specular3"></feComposite><feMerge result="merge"><feMergeNode in="border"></feMergeNode><feMergeNode in="inner-shadow"></feMergeNode><feMergeNode in="specular3"></feMergeNode></feMerge><feComponentTransfer in="merge" result="final"><feFuncA type="linear" slope="0.9" intercept="0"></feFuncA></feComponentTransfer><feMerge><feMergeNode in="shadow"></feMergeNode><feMergeNode in="final"></feMergeNode></feMerge></filter></defs><g filter="url(#editing-crystal)"><g transform="translate(198.48509019613266, 107.63999938964844)"><path d="M45.31-50.88L45.31-50.88L45.31-50.88Q37.54-50.88 31.87-53.47L31.87-53.47L28.80-37.92L47.33-37.92L47.33-37.92Q47.33-32.83 44.78-29.62L44.78-29.62L44.78-29.62Q42.24-26.40 37.63-26.40L37.63-26.40L37.63-26.40Q32.64-26.40 28.03-28.22L28.03-28.22L28.03-28.22Q27.07-28.61 26.98-28.70L26.98-28.70L21.50 0L0.58 0L12.77-63.36L55.58-63.36L55.58-63.36Q55.58-57.50 52.85-54.19L52.85-54.19L52.85-54.19Q50.11-50.88 45.31-50.88ZM94.18-14.78L94.18-14.78L94.18-14.78Q96-12.48 96-8.74L96-8.74L96-8.74Q96-3.55 92.16-0.82L92.16-0.82L92.16-0.82Q88.32 1.92 82.27 1.92L82.27 1.92L82.27 1.92Q78.82 1.92 73.54 1.15L73.54 1.15L73.54 1.15Q63.17-0.48 60-0.48L60-0.48L60-0.48Q56.83-0.48 55.58-0.34L55.58-0.34L55.58-0.34Q54.34-0.19 52.32 0L52.32 0L64.13-63.36L105.50-63.36L105.50-63.36Q105.50-57.50 102.67-54.43L102.67-54.43L102.67-54.43Q99.84-51.36 94.27-51.36L94.27-51.36L94.27-51.36Q88.70-51.36 83.04-53.95L83.04-53.95L80.06-37.15L97.15-37.15L97.15-37.15Q97.15-32.06 94.66-29.23L94.66-29.23L94.66-29.23Q92.16-26.40 87.98-26.40L87.98-26.40L87.98-26.40Q83.81-26.40 81.22-27.36L81.22-27.36L81.22-27.36Q78.62-28.32 78.34-28.61L78.34-28.61L74.88-10.46L74.88-10.46Q77.18-10.18 81.50-10.18L81.50-10.18L81.50-10.18Q88.90-10.18 94.18-14.78Z" fill="#000000" stroke="#88e0eb" stroke-width="1.5"></path></g></g><style>text {
  font-size: 64px;
  font-family: Arial Black;
  dominant-baseline: central;
  text-anchor: middle;
}</style></svg>